Coordinates
version=1
nRows=12
nColumns=24
inDegrees=yes

Units are S.I. units (second, meters, Newtons, ...)
Angles are in degrees.

endheader
time	pelvis_tilt	pelvis_list	pelvis_rotation	pelvis_tx	pelvis_ty	pelvis_tz	hip_flexion_r	hip_adduction_r	hip_rotation_r	knee_angle_r	ankle_angle_r	subtalar_angle_r	mtp_angle_r	hip_flexion_l	hip_adduction_l	hip_rotation_l	knee_angle_l	ankle_angle_l	subtalar_angle_l	mtp_angle_l	lumbar_extension	lumbar_bending	lumbar_rotation
      4.83500000	     -4.58128622	      8.75896188	     -4.93229170	      0.40766370	      1.01312977	     -0.24213560	      8.88325243	    -13.08777650	     -4.39077687	    -60.60930279	    -12.23382861	     -0.54669186	      0.00000000	     19.81968484	     10.70640934	     -6.98068266	    -16.26679358	      8.32834461	     -9.10814719	      0.00000000	     -6.67505355	    -12.35172061	      3.54319548
      4.84000000	     -4.52224755	      8.86657528	     -4.90905139	      0.41401495	      1.01390264	     -0.24260760	      9.64633948	    -13.18345519	     -4.34199434	    -61.56334770	    -11.29853987	     -0.65535029	      0.00000000	     19.21419646	     10.92928863	     -6.85622897	    -15.94766474	      8.56692777	     -9.09009991	      0.00000000	     -6.74811535	    -12.43901351	      3.24851057
      4.84500000	     -4.47099482	      8.94095617	     -4.87578846	      0.42031823	      1.01468764	     -0.24309883	     10.40365773	    -13.23212188	     -4.28543393	    -62.44754986	    -10.12795286	     -0.57006478	      0.00000000	     18.60002411	     11.12694200	     -6.66354056	    -15.60060502	      8.76548957	     -9.13014644	      0.00000000	     -6.81894330	    -12.47767886	      2.96511214
      4.85000000	     -4.41915771	      8.98421015	     -4.82959706	      0.42657769	      1.01550000	     -0.24360625	     11.14597679	    -13.24685646	     -4.25962448	    -63.25342020	     -8.82322545	     -0.40097696	      0.00000000	     17.97264376	     11.29924487	     -6.43423603	    -15.23378816	      8.92215354	     -9.21125576	      0.00000000	     -6.89737555	    -12.48045807	      2.67172129
      4.85500000	     -4.35973943	      9.00847083	     -4.76969718	      0.43278355	      1.01632467	     -0.24418651	     11.87096756	    -13.25380089	     -4.27731589	    -63.98903563	     -7.41862400	     -0.16211850	      0.00000000	     17.33279984	     11.46436193	     -6.16994418	    -14.85495602	      9.02826688	     -9.37772722	      0.00000000	     -6.99494287	    -12.44731135	      2.38067052
      4.86000000	     -4.28953669	      9.02913050	     -4.70381915	      0.43906017	      1.01719838	     -0.24476804	     12.56293412	    -13.25702084	     -4.31703162	    -64.63353063	     -5.97835603	      0.09893179	      0.00000000	     16.63681527	     11.63570492	     -5.79353181	    -14.40227660	      9.05543979	     -9.61583416	      0.00000000	     -7.08492531	    -12.41207307	      2.08253946
      4.86500000	     -4.22772827	      8.99826211	     -4.60236282	      0.44526211	      1.01808060	     -0.24536774	     13.23930669	    -13.20811910	     -4.41078415	    -65.19830665	     -4.51205762	      0.40068595	      0.00000000	     15.96261949	     11.75029983	     -5.45287483	    -13.98651177	      9.12214055	     -9.76915699	      0.00000000	     -7.18566205	    -12.31274325	      1.76292499
      4.87000000	     -4.17261336	      8.93987072	     -4.49190869	      0.45145650	      1.01895815	     -0.24598707	     13.90742596	    -13.13249841	     -4.53022707	    -65.68657240	     -3.06777732	      0.71572792	      0.00000000	     15.28662150	     11.83597504	     -5.10104849	    -13.56064536	      9.18067025	     -9.93436296	      0.00000000	     -7.27728861	    -12.17669866	      1.44491685
      4.87500000	     -4.10635111	      8.87935204	     -4.37790729	      0.45766746	      1.01984375	     -0.24664813	     14.55422641	    -13.06203879	     -4.66899850	    -66.10324044	     -1.68523699	      1.01609035	      0.00000000	     14.57329147	     11.92756155	     -4.65728626	    -13.08949035	      9.18564392	    -10.18853040	      0.00000000	     -7.37603343	    -12.03245574	      1.11630720
      4.88000000	     -4.04644739	      8.78708986	     -4.25166291	      0.46384773	      1.02072200	     -0.24731555	     15.19042088	    -12.95703029	     -4.83303908	    -66.44516812	     -0.36194325	      1.29934804	      0.00000000	     13.86903208	     11.98079467	     -4.22934490	    -12.62880748	      9.19404906	    -10.41885358	      0.00000000	     -7.47370251	    -11.84934487	      0.79251366
      4.88500000	     -3.99311453	      8.67763576	     -4.10939925	      0.47001735	      1.02159734	     -0.24800235	     15.81363805	    -12.83708388	     -5.02937018	    -66.70923989	      0.89304861	      1.55573077	      0.00000000	     13.16782434	     12.01315616	     -3.80648735	    -12.16334575	      9.16974245	    -10.65137486	      0.00000000	     -7.56499355	    -11.64305051	      0.47848081
      4.89000000	     -3.94207144	      8.55207244	     -3.96030345	      0.47618739	      1.02244725	     -0.24871793	     16.42553587	    -12.70387963	     -5.24516740	    -66.90514462	      2.06275517	      1.78968572	      0.00000000	     12.46112511	     12.02791774	     -3.37388727	    -11.68523134	      9.14404529	    -10.91124593	      0.00000000	     -7.65178028	    -11.41251016	      0.15636229
